<?xml version="1.0" encoding="UTF-8"?>
<svg id="_レイヤー_1" data-name="レイヤー 1" xmlns="http://www.w3.org/2000/svg" viewBox="0 0 20 19">
  <defs>
    <style>
      .cls-1 {
        fill: #a59292;
      }

      .cls-2 {
        fill: #1f1f1f;
      }
    </style>
  </defs>
  <polygon class="cls-1" points="10 4.64 8.4 8.35 4.39 8.71 7.44 11.38 6.53 15.31 10 13.22 13.47 15.34 12.56 11.38 15.61 8.74 11.6 8.38 10 4.64"/>
  <path class="cls-2" d="M6.85,14.83l3.15-1.9,3.15,1.93-.83-3.6,2.78-2.4-3.65-.33-1.45-3.4-1.45,3.38-3.65.33,2.78,2.43-.83,3.58ZM3.83,19l1.63-7.03L0,7.25l7.2-.63L10,0l2.8,6.63,7.2.63-5.45,4.73,1.63,7.03-6.18-3.73-6.18,3.73Z"/>
</svg>