<svg width="171" height="41" viewBox="0 0 171 41" fill="none" xmlns="http://www.w3.org/2000/svg">
<path d="M29.4025 6.67773H8.01887C3.59017 6.67773 0 10.2679 0 14.6966V25.3884C0 29.8171 3.59017 33.4073 8.01887 33.4073H29.4025C33.8312 33.4073 37.4214 29.8171 37.4214 25.3884V14.6966C37.4214 10.2679 33.8312 6.67773 29.4025 6.67773Z" fill="#3B82F6"/>
<path d="M16.0378 15.3643V24.7196L24.0566 20.0419L16.0378 15.3643Z" fill="white"/>
<path d="M9.35539 33.4072H14.7013L12.0283 40.0896L9.35539 33.4072Z" fill="#3B82F6"/>
<path d="M49.3547 11.7205C49.2977 12.1624 49.2407 12.64 49.1837 13.1532C49.1409 13.6664 49.1052 14.1369 49.0767 14.5645C49.0625 15.149 49.034 15.8618 48.9912 16.7029C48.9627 17.5297 48.9342 18.3993 48.9057 19.3117C48.8914 20.2241 48.87 21.1222 48.8415 22.006C48.8273 22.8899 48.8201 23.6597 48.8201 24.3155C48.8201 25.0283 48.9484 25.5985 49.205 26.0262C49.4759 26.4396 49.8323 26.739 50.2742 26.9243C50.7161 27.0953 51.2151 27.1809 51.7711 27.1809C52.6549 27.1809 53.4604 27.0668 54.1874 26.8387C54.9145 26.5964 55.5774 26.2756 56.1761 25.8765C56.7748 25.4773 57.3094 25.014 57.7799 24.4865C58.2646 23.9591 58.6994 23.4031 59.0843 22.8186L61.0302 25.1708C60.6881 25.684 60.239 26.2257 59.683 26.796C59.127 27.3662 58.4642 27.9008 57.6943 28.3997C56.9388 28.8987 56.0621 29.305 55.0642 29.6186C54.0663 29.9322 52.9614 30.0891 51.7497 30.0891C50.5807 30.0891 49.5614 29.9037 48.6918 29.5331C47.8365 29.1767 47.1665 28.6207 46.6818 27.8652C46.2113 27.0953 45.9761 26.1046 45.9761 24.8928C45.9761 24.3083 45.9832 23.6454 45.9975 22.9041C46.0117 22.1486 46.0331 21.3645 46.0616 20.5519C46.0902 19.7394 46.1115 18.9482 46.1258 18.1784C46.14 17.3943 46.1543 16.6886 46.1686 16.0614C46.1828 15.4341 46.1899 14.9352 46.1899 14.5645C46.1899 14.0513 46.1686 13.5524 46.1258 13.0677C46.083 12.5687 46.0117 12.1054 45.912 11.6777L49.3547 11.7205ZM73.5182 17.9645C73.2046 17.6366 72.834 17.2802 72.4063 16.8953C71.9786 16.5104 71.5723 16.1826 71.1874 15.9117L73.0692 14.5218C73.283 14.6501 73.5396 14.8425 73.839 15.0991C74.1526 15.3557 74.452 15.6195 74.7371 15.8903C75.0222 16.1469 75.2503 16.375 75.4214 16.5746L73.5182 17.9645ZM69.1346 16.2111C69.2344 16.4106 69.3484 16.6316 69.4767 16.874C69.605 17.1163 69.7048 17.3159 69.7761 17.4727C69.9899 17.8576 70.2394 18.3494 70.5245 18.9482C70.8239 19.5327 71.1161 20.1385 71.4013 20.7658C71.6864 21.393 71.9287 21.9561 72.1283 22.4551C72.3279 22.9255 72.5489 23.4886 72.7912 24.1444C73.0478 24.8002 73.2973 25.4844 73.5396 26.1972C73.7962 26.8958 74.0315 27.5729 74.2453 28.2287C74.4734 28.8844 74.6587 29.4547 74.8013 29.9394L72.1069 30.5809C71.9359 29.8681 71.7149 29.0912 71.444 28.2501C71.1874 27.3947 70.9094 26.5536 70.6101 25.7268C70.3107 24.9 70.0327 24.1587 69.7761 23.5029C69.548 22.9754 69.2985 22.4123 69.0277 21.8136C68.7568 21.2006 68.486 20.6232 68.2151 20.0815C67.9585 19.5398 67.7161 19.0836 67.4881 18.713C67.374 18.5134 67.2243 18.2782 67.039 18.0073C66.8679 17.7222 66.6826 17.4656 66.483 17.2375L69.1346 16.2111ZM64.8151 21.3004C65.2285 21.2006 65.6134 21.0937 65.9698 20.9796C66.3262 20.8656 66.5757 20.78 66.7182 20.723C67.3455 20.4807 68.0084 20.2098 68.7069 19.9104C69.4055 19.6111 70.1111 19.3117 70.8239 19.0123C71.5509 18.713 72.2637 18.4421 72.9623 18.1997C73.6608 17.9431 74.3237 17.7364 74.9509 17.5796C75.5782 17.4228 76.1556 17.3444 76.683 17.3444C77.7237 17.3444 78.5719 17.5297 79.2277 17.9004C79.8977 18.271 80.3895 18.7486 80.7031 19.3331C81.031 19.9033 81.195 20.5092 81.195 21.1507C81.195 22.4622 80.8172 23.5029 80.0616 24.2727C79.3061 25.0425 78.13 25.4274 76.5333 25.4274C76.0772 25.4274 75.5925 25.3704 75.0792 25.2564C74.5803 25.128 74.174 25.0069 73.8604 24.8928L73.9245 22.4337C74.3094 22.6048 74.7157 22.7473 75.1434 22.8614C75.5853 22.9612 75.9845 23.0111 76.3409 23.0111C76.8398 23.0111 77.2461 22.9327 77.5598 22.7758C77.8876 22.619 78.13 22.4052 78.2868 22.1343C78.4579 21.8492 78.5434 21.5213 78.5434 21.1507C78.5434 20.9083 78.4721 20.6802 78.3296 20.4664C78.187 20.2383 77.9732 20.0601 77.6881 19.9318C77.4029 19.7893 77.0323 19.718 76.5761 19.718C76.0201 19.718 75.3572 19.8392 74.5874 20.0815C73.8176 20.3096 73.005 20.609 72.1497 20.9796C71.2943 21.336 70.4604 21.7138 69.6478 22.113C68.8352 22.4979 68.1082 22.8543 67.4667 23.1821C66.8252 23.51 66.3476 23.7452 66.034 23.8878L64.8151 21.3004ZM84.8302 22.6903C85.1438 22.4337 85.4361 22.1771 85.7069 21.9205C85.992 21.6639 86.2985 21.3645 86.6264 21.0224C86.8688 20.7515 87.1468 20.4308 87.4604 20.0601C87.7883 19.6752 88.1304 19.2618 88.4868 18.8199C88.8432 18.3779 89.1996 17.936 89.556 17.4941C89.9124 17.0522 90.2616 16.6387 90.6038 16.2538C91.3451 15.3985 92.0721 14.9423 92.7849 14.8853C93.4977 14.814 94.2461 15.1633 95.0302 15.9331C95.5291 16.4035 96.0352 16.9452 96.5484 17.5582C97.0616 18.157 97.5677 18.7557 98.0667 19.3545C98.5799 19.9389 99.0432 20.4593 99.4566 20.9155C99.7987 21.2861 100.169 21.6853 100.569 22.113C100.968 22.5264 101.388 22.9612 101.83 23.4174C102.272 23.8593 102.728 24.3155 103.199 24.7859C103.683 25.2421 104.182 25.6983 104.696 26.1545L102.45 28.6777C101.937 28.193 101.403 27.6513 100.847 27.0526C100.305 26.4396 99.7702 25.8266 99.2428 25.2136C98.7296 24.5863 98.2449 24.0161 97.7887 23.5029C97.3468 22.9754 96.8834 22.4195 96.3987 21.835C95.9283 21.2505 95.465 20.6874 95.0088 20.1457C94.5669 19.6039 94.1748 19.1478 93.8327 18.7771C93.5904 18.492 93.3694 18.3138 93.1698 18.2425C92.9845 18.1712 92.8063 18.1926 92.6352 18.3067C92.4642 18.4065 92.2717 18.5847 92.0579 18.8413C91.8583 19.1121 91.6088 19.4329 91.3094 19.8035C91.0243 20.1742 90.725 20.5662 90.4113 20.9796C90.112 21.393 89.8126 21.7993 89.5132 22.1985C89.2281 22.5834 88.9715 22.9255 88.7434 23.2249C88.5011 23.5813 88.2587 23.9519 88.0164 24.3369C87.7883 24.7218 87.5816 25.0568 87.3962 25.3419L84.8302 22.6903ZM99.3497 13.9444C99.5493 14.2438 99.7774 14.6002 100.034 15.0136C100.291 15.4127 100.54 15.8262 100.782 16.2538C101.025 16.6673 101.224 17.0379 101.381 17.3658L99.4566 18.1997C99.2428 17.7578 99.0361 17.3444 98.8365 16.9595C98.6369 16.5603 98.4302 16.1826 98.2164 15.8262C98.0025 15.4555 97.7602 15.0849 97.4893 14.7142L99.3497 13.9444ZM102.215 12.7683C102.443 13.0534 102.686 13.4027 102.942 13.8161C103.199 14.2153 103.448 14.6215 103.691 15.035C103.947 15.4341 104.154 15.7905 104.311 16.1041L102.45 17.0023C102.222 16.5461 102.001 16.1327 101.787 15.762C101.574 15.3914 101.353 15.0278 101.125 14.6714C100.896 14.3151 100.647 13.9658 100.376 13.6236L102.215 12.7683ZM110.277 12.3834C110.576 12.4262 110.897 12.4547 111.239 12.4689C111.581 12.4832 111.909 12.4903 112.223 12.4903C112.451 12.4903 112.793 12.4903 113.249 12.4903C113.705 12.4761 114.218 12.4618 114.789 12.4475C115.373 12.4333 115.951 12.419 116.521 12.4048C117.091 12.3905 117.604 12.3763 118.06 12.362C118.531 12.3335 118.894 12.3121 119.151 12.2979C119.593 12.2551 119.942 12.2195 120.199 12.1909C120.455 12.1482 120.648 12.1054 120.776 12.0626L122.166 13.9658C121.924 14.1226 121.674 14.2794 121.418 14.4362C121.161 14.593 120.912 14.7641 120.669 14.9494C120.384 15.149 120.042 15.4127 119.643 15.7406C119.244 16.0543 118.816 16.3893 118.36 16.7457C117.918 17.1021 117.483 17.4513 117.055 17.7935C116.642 18.1356 116.264 18.4421 115.922 18.713C116.278 18.6274 116.621 18.5704 116.948 18.5419C117.276 18.4991 117.611 18.4777 117.953 18.4777C119.165 18.4777 120.249 18.713 121.204 19.1834C122.173 19.6538 122.936 20.2953 123.492 21.1079C124.062 21.9062 124.347 22.8257 124.347 23.8664C124.347 24.9926 124.062 26.0119 123.492 26.9243C122.922 27.8366 122.059 28.5637 120.904 29.1054C119.764 29.6471 118.331 29.918 116.606 29.918C115.623 29.918 114.732 29.7754 113.933 29.4903C113.149 29.2052 112.529 28.7989 112.073 28.2714C111.617 27.744 111.389 27.1239 111.389 26.4111C111.389 25.8266 111.545 25.2849 111.859 24.7859C112.187 24.2727 112.636 23.8593 113.206 23.5457C113.791 23.232 114.461 23.0752 115.216 23.0752C116.2 23.0752 117.027 23.2748 117.697 23.674C118.381 24.0589 118.901 24.5792 119.258 25.235C119.629 25.8907 119.821 26.6106 119.835 27.3947L117.333 27.7369C117.319 26.9528 117.119 26.3255 116.735 25.8551C116.364 25.3704 115.865 25.128 115.238 25.128C114.839 25.128 114.518 25.235 114.275 25.4488C114.033 25.6484 113.912 25.8836 113.912 26.1545C113.912 26.5536 114.112 26.8744 114.511 27.1167C114.91 27.3591 115.43 27.4803 116.072 27.4803C117.283 27.4803 118.296 27.3377 119.108 27.0526C119.921 26.7532 120.527 26.3327 120.926 25.7909C121.339 25.235 121.546 24.5792 121.546 23.8236C121.546 23.1821 121.346 22.619 120.947 22.1343C120.562 21.6496 120.035 21.2719 119.365 21.001C118.695 20.7301 117.939 20.5947 117.098 20.5947C116.271 20.5947 115.516 20.7016 114.831 20.9155C114.147 21.1151 113.499 21.4073 112.886 21.7922C112.287 22.1628 111.695 22.619 111.111 23.1608C110.54 23.6882 109.97 24.2798 109.4 24.9356L107.454 22.9255C107.839 22.6119 108.274 22.2626 108.758 21.8777C109.243 21.4786 109.735 21.0652 110.234 20.6375C110.747 20.2098 111.225 19.8106 111.667 19.44C112.123 19.0551 112.508 18.7343 112.821 18.4777C113.121 18.2354 113.47 17.9503 113.869 17.6224C114.268 17.2945 114.682 16.9595 115.109 16.6174C115.537 16.261 115.943 15.926 116.328 15.6123C116.713 15.2844 117.034 15.0065 117.291 14.7784C117.077 14.7784 116.799 14.7855 116.457 14.7997C116.114 14.814 115.737 14.8283 115.323 14.8425C114.924 14.8568 114.518 14.871 114.104 14.8853C113.705 14.8995 113.327 14.9209 112.971 14.9494C112.629 14.9637 112.344 14.9779 112.116 14.9922C111.831 15.0065 111.531 15.0278 111.218 15.0564C110.904 15.0849 110.619 15.1205 110.362 15.1633L110.277 12.3834ZM131.66 27.245H143.443V29.7255H131.66V27.245ZM130.506 21.0865H144.811V30.5595H142.053V23.5457H133.136V30.5809H130.506V21.0865ZM134.697 10.3519L137.626 11.3142C137.156 12.1838 136.65 13.0748 136.108 13.9872C135.581 14.8853 135.046 15.7406 134.504 16.5532C133.963 17.3515 133.449 18.0643 132.965 18.6916L130.655 17.7507C131.14 17.0949 131.632 16.3465 132.131 15.5054C132.63 14.6501 133.1 13.7733 133.542 12.8752C133.998 11.9771 134.383 11.136 134.697 10.3519ZM139.829 14.1582L141.86 12.6614C142.573 13.2316 143.3 13.8731 144.042 14.5859C144.797 15.2844 145.488 15.9972 146.116 16.7243C146.757 17.4371 147.263 18.1 147.634 18.713L145.41 20.4236C145.068 19.8106 144.59 19.1406 143.977 18.4136C143.379 17.6723 142.716 16.931 141.989 16.1897C141.262 15.4484 140.542 14.7712 139.829 14.1582ZM128.218 16.5746C129.301 16.5461 130.506 16.5104 131.831 16.4677C133.171 16.4106 134.576 16.3536 136.044 16.2966C137.527 16.2396 139.031 16.1826 140.556 16.1255C142.081 16.0685 143.578 16.0115 145.047 15.9545L144.94 18.435C143.457 18.5205 141.96 18.5989 140.449 18.6702C138.938 18.7272 137.455 18.7914 136.001 18.8626C134.561 18.9197 133.193 18.9767 131.896 19.0337C130.598 19.0765 129.422 19.1192 128.367 19.162L128.218 16.5746ZM149.601 14.6714H168.504V17.2802H149.601V14.6714ZM153.985 24.3582H163.928V26.967H153.985V24.3582ZM157.663 10.523H160.379V30.6023H157.663V10.523ZM156.893 15.6123L159.245 16.3608C158.632 17.9004 157.891 19.3687 157.021 20.7658C156.152 22.1628 155.175 23.4316 154.092 24.5721C153.023 25.6983 151.868 26.6605 150.628 27.4589C150.485 27.245 150.3 27.0098 150.072 26.7532C149.844 26.4823 149.616 26.2186 149.387 25.962C149.174 25.6912 148.96 25.4773 148.746 25.3205C149.63 24.8358 150.478 24.2442 151.291 23.5457C152.103 22.8471 152.859 22.0702 153.557 21.2148C154.27 20.3595 154.904 19.4614 155.46 18.5205C156.031 17.5654 156.508 16.596 156.893 15.6123ZM161.17 15.6765C161.683 16.931 162.353 18.1641 163.18 19.3758C164.021 20.5733 164.976 21.6639 166.045 22.6475C167.114 23.6312 168.241 24.4366 169.424 25.0639C169.21 25.235 168.975 25.4559 168.718 25.7268C168.476 25.9977 168.241 26.2828 168.013 26.5821C167.784 26.8673 167.592 27.131 167.435 27.3733C166.195 26.6035 165.033 25.6626 163.95 24.5507C162.881 23.4245 161.918 22.17 161.063 20.7872C160.208 19.4044 159.466 17.9574 158.839 16.4463L161.17 15.6765Z" fill="#111827"/>
</svg>
